<?xml version="1.0" encoding="utf-8"?>
<!-- Generator: Adobe Illustrator 24.0.0, SVG Export Plug-In . SVG Version: 6.00 Build 0)  -->
<svg version="1.1" id="Layer_1" xmlns="http://www.w3.org/2000/svg" xmlns:xlink="http://www.w3.org/1999/xlink" x="0px" y="0px"
	width="40em" height="30em" viewBox="0 0 593 394" style="enable-background:new 0 0 593 394;" xml:space="preserve">
<style type="text/css">
	.st0{fill:#3A3732;}
	.st1{fill:#61A34C;}
	.st2{enable-background:new    ;}
	.st3{fill:#F8F4E8;}
</style>
<g>
	<path class="st0" d="M279.9,130.9c0,0,0,7-2,8s2,4,6,2s4-8,4-8s10-1,15-11c0,0,0-1-1-1s-8,11-13,8c0,0,0-3,3-10s6-30,32-81
		c0,0,2-3,2-4s-19,9-42,49c0,0-9-27-25-19s-12,39,2,55c0,0-13,21-34,21s-22-25-22-25s1-34,27-32c0,0,9,0,11,10s0,31-21,29
		c0,0-2,1,1,2s13,2,19-9s4-22,4-22s-3-23-25-16s-29,53-1,64c0,0,24,8,42-20C261.9,120.9,271.9,131.9,279.9,130.9z M316.9,42.9
		c0,0,2-1,1,1c0,0-28,50-31,69c0,0-1,2-1-2s0-14-1-26C284.9,84.9,306.9,48.9,316.9,42.9z M283.9,91.9c0,4,2,25-3,38c0,0-7,0-17-11
		c0,0,16-23,18-30C281.9,88.9,283.9,87.9,283.9,91.9z M252.9,89.9c2-15,7-22,13-22s13,3,16,18c0,0-9,14-19,31
		C262.9,116.9,250.9,104.9,252.9,89.9z"/>
</g>
<g>
	<path class="st0" d="M347.9,128.9c-14,24-23,54-23,54s-7,23-32,28s-29-18-29-18s-7-25,12-38s27,3,27,3s6,13-3,27s-22,5-25,4
		s-1,2-1,2c8,6,17,4,17,4s15-5,16-20s-2-23-9-28s-19-1-19-1c-28,14-18,48-18,48s5,19,25,20s29-8,39-20s21-42,26-59s12-20,12-20
		S361.9,104.9,347.9,128.9z"/>
</g>
<g>
	<path class="st0" d="M377.9,100.9c-4,1-18,1-35,1s-21,4-21,4c-21,9-20,30-20,30s0,20,17,17s25-32,23-33s-3,5-3,5
		c-12,24-23,24-30,22s-8-25,5-34s32-6,48-4s21-3,23-6S381.9,99.9,377.9,100.9z"/>
</g>
<g>
	<rect x="11.1" y="271" class="st1" width="570.9" height="81"/>
</g>
<g class="st2">
	<path class="st3" d="M114.7,333.5l9.2-42.9h3.4l9.8,42.9h-3.6l-2.8-13h-10l-2.6,13H114.7z M121.6,315.9h8.1l-2.5-11.9
		c-0.8-3.6-1.3-6.6-1.7-8.9c-0.3,2.8-0.7,5.5-1.3,8.2L121.6,315.9z"/>
	<path class="st3" d="M139.6,333.5v-42.9h8.2c1.9,0,3.3,0.2,4.3,0.6c1.4,0.6,2.5,1.6,3.5,3.1c1.3,1.9,2.2,4.4,2.8,7.3
		c0.6,3,0.9,6.4,0.9,10.2c0,3.3-0.2,6.2-0.6,8.7s-1,4.6-1.6,6.3c-0.7,1.7-1.4,2.9-2.2,3.9c-0.8,0.9-1.7,1.7-2.9,2.2
		c-1.1,0.5-2.4,0.7-3.8,0.7H139.6z M142.8,328.5h5.1c1.6,0,2.8-0.3,3.7-0.8c0.9-0.5,1.6-1.3,2.1-2.2c0.8-1.3,1.3-3.2,1.8-5.4
		c0.4-2.3,0.6-5,0.6-8.3c0-4.5-0.4-7.9-1.2-10.4c-0.8-2.4-1.8-4-3-4.8c-0.8-0.6-2.2-0.9-4.1-0.9h-5V328.5z"/>
	<path class="st3" d="M164.3,333.5v-42.9h3.2v42.9H164.3z"/>
	<path class="st3" d="M179.2,333.5v-37.9h-7.9v-5.1h19v5.1h-7.9v37.9H179.2z"/>
	<path class="st3" d="M194,333.5v-42.9h3.2v42.9H194z"/>
	<path class="st3" d="M209.6,333.5l-9.3-42.9h3.4l6.2,31.2c0.5,2.5,0.9,4.8,1.3,7c0.4-2.3,0.8-4.7,1.3-7l6.5-31.2h3.2l-9.4,42.9
		H209.6z"/>
	<path class="st3" d="M232.9,320.6v-5.3h9v5.3H232.9z"/>
	<path class="st3" d="M260.3,333.5v-37.9h-7.9v-5.1h19v5.1h-7.9v37.9H260.3z"/>
	<path class="st3" d="M274.7,333.5v-42.9h10.6c2.1,0,3.8,0.4,4.9,1.2c1.1,0.8,2,2.1,2.7,4.1s1,4.1,1,6.5c0,3-0.5,5.6-1.6,7.7
		c-1.1,2.1-2.8,3.4-5.1,4c0.8,0.7,1.5,1.4,1.9,2.1c0.9,1.5,1.8,3.4,2.6,5.7l4.2,11.7h-4l-3.2-8.9c-0.9-2.6-1.7-4.6-2.3-5.9
		s-1.1-2.3-1.6-2.9c-0.5-0.5-1-0.9-1.4-1.1c-0.4-0.1-0.9-0.2-1.8-0.2h-3.7v19.1H274.7z M277.8,309.5h6.8c1.4,0,2.6-0.3,3.4-0.8
		c0.8-0.5,1.4-1.4,1.9-2.6c0.4-1.2,0.6-2.5,0.6-3.9c0-2-0.4-3.7-1.2-5c-0.8-1.3-2.1-2-3.9-2h-7.6V309.5z"/>
	<path class="st3" d="M296.1,333.5l9.2-42.9h3.4l9.8,42.9h-3.6l-2.8-13h-10l-2.6,13H296.1z M303.1,315.9h8.1l-2.5-11.9
		c-0.8-3.6-1.3-6.6-1.7-8.9c-0.3,2.8-0.7,5.5-1.3,8.2L303.1,315.9z"/>
	<path class="st3" d="M321.1,333.5v-42.9h8.2c1.9,0,3.3,0.2,4.3,0.6c1.4,0.6,2.5,1.6,3.5,3.1c1.3,1.9,2.2,4.4,2.8,7.3
		c0.6,3,0.9,6.4,0.9,10.2c0,3.3-0.2,6.2-0.6,8.7c-0.4,2.5-1,4.6-1.6,6.3c-0.7,1.7-1.4,2.9-2.2,3.9c-0.8,0.9-1.7,1.7-2.9,2.2
		c-1.1,0.5-2.4,0.7-3.8,0.7H321.1z M324.2,328.5h5.1c1.6,0,2.8-0.3,3.7-0.8c0.9-0.5,1.6-1.3,2.1-2.2c0.8-1.3,1.3-3.2,1.8-5.4
		c0.4-2.3,0.6-5,0.6-8.3c0-4.5-0.4-7.9-1.2-10.4c-0.8-2.4-1.8-4-3-4.8c-0.8-0.6-2.2-0.9-4.1-0.9h-5V328.5z"/>
	<path class="st3" d="M345.3,333.5v-42.9h17.3v5.1h-14.1v13.2h13.2v5h-13.2v14.6h14.7v5.1H345.3z"/>
	<path class="st3" d="M376.8,333.5v-42.9h8.2c1.9,0,3.3,0.2,4.3,0.6c1.4,0.6,2.5,1.6,3.5,3.1c1.3,1.9,2.2,4.4,2.8,7.3
		c0.6,3,0.9,6.4,0.9,10.2c0,3.3-0.2,6.2-0.6,8.7s-1,4.6-1.6,6.3c-0.7,1.7-1.4,2.9-2.2,3.9c-0.8,0.9-1.7,1.7-2.9,2.2
		c-1.1,0.5-2.4,0.7-3.8,0.7H376.8z M380,328.5h5.1c1.6,0,2.8-0.3,3.7-0.8s1.6-1.3,2.1-2.2c0.8-1.3,1.3-3.2,1.8-5.4
		c0.4-2.3,0.6-5,0.6-8.3c0-4.5-0.4-7.9-1.2-10.4c-0.8-2.4-1.8-4-3-4.8c-0.8-0.6-2.2-0.9-4.1-0.9h-5V328.5z"/>
	<path class="st3" d="M401.4,333.5v-6h3.3v6H401.4z"/>
	<path class="st3" d="M409.3,312.6c0-7.1,1.1-12.7,3.2-16.7c2.1-4,4.9-6,8.3-6c2.2,0,4.2,0.9,6,2.8c1.8,1.9,3.1,4.5,4.1,7.9
		c0.9,3.4,1.4,7.2,1.4,11.5c0,4.4-0.5,8.3-1.5,11.7s-2.4,6-4.2,7.8c-1.8,1.8-3.7,2.7-5.8,2.7c-2.3,0-4.3-1-6-2.9c-1.8-2-3.1-4.6-4-8
		S409.3,316.4,409.3,312.6z M412.6,312.7c0,5.2,0.8,9.3,2.3,12.2c1.6,3,3.5,4.5,5.8,4.5c2.4,0,4.3-1.5,5.9-4.5
		c1.5-3,2.3-7.3,2.3-12.8c0-3.5-0.3-6.5-1-9.2s-1.6-4.6-2.9-6.1s-2.7-2.2-4.3-2.2c-2.2,0-4.2,1.4-5.8,4.1
		C413.4,301.6,412.6,306.2,412.6,312.7z"/>
	<path class="st3" d="M436.7,333.5v-6h3.3v6H436.7z"/>
	<path class="st3" d="M444.6,312.6c0-7.1,1.1-12.7,3.2-16.7c2.1-4,4.9-6,8.3-6c2.2,0,4.2,0.9,6,2.8c1.8,1.9,3.1,4.5,4.1,7.9
		c0.9,3.4,1.4,7.2,1.4,11.5c0,4.4-0.5,8.3-1.5,11.7c-1,3.4-2.4,6-4.2,7.8c-1.8,1.8-3.7,2.7-5.8,2.7c-2.3,0-4.3-1-6-2.9
		c-1.8-2-3.1-4.6-4-8C445.1,320,444.6,316.4,444.6,312.6z M447.9,312.7c0,5.2,0.8,9.3,2.3,12.2c1.6,3,3.5,4.5,5.8,4.5
		c2.4,0,4.3-1.5,5.9-4.5c1.5-3,2.3-7.3,2.3-12.8c0-3.5-0.3-6.5-1-9.2c-0.7-2.6-1.6-4.6-2.9-6.1c-1.3-1.4-2.7-2.2-4.3-2.2
		c-2.2,0-4.2,1.4-5.8,4.1C448.7,301.6,447.9,306.2,447.9,312.7z"/>
	<path class="st3" d="M472,333.5v-6h3.3v6H472z"/>
</g>
<g class="st2">
	<path class="st0" d="M39.3,379.1v-15h3.4c1.3,0,2.1,0.1,2.5,0.2c0.6,0.2,1.1,0.7,1.6,1.5c0.4,0.8,0.6,1.7,0.6,2.9
		c0,1.1-0.2,2-0.5,2.7c-0.4,0.7-0.8,1.3-1.3,1.5c-0.5,0.3-1.4,0.4-2.7,0.4h-1.4v5.7H39.3z M41.5,366.6v4.3h1.2
		c0.8,0,1.3-0.1,1.6-0.2c0.3-0.1,0.5-0.4,0.7-0.7c0.2-0.3,0.3-0.8,0.3-1.2c0-0.5-0.1-0.9-0.3-1.3s-0.4-0.6-0.7-0.7s-0.9-0.2-1.8-0.2
		H41.5z"/>
	<path class="st0" d="M49.2,379.1v-15h4.5c1.1,0,2,0.1,2.5,0.4c0.5,0.3,0.9,0.7,1.2,1.4c0.3,0.7,0.5,1.5,0.5,2.4
		c0,1.2-0.2,2.1-0.7,2.8c-0.5,0.7-1.2,1.2-2.1,1.4c0.5,0.4,0.8,0.8,1.1,1.3s0.7,1.3,1.2,2.4l1.3,2.9h-2.5l-1.5-3.3
		c-0.6-1.2-0.9-1.9-1.1-2.2c-0.2-0.3-0.4-0.5-0.6-0.6c-0.2-0.1-0.6-0.2-1.1-0.2h-0.4v6.3H49.2z M51.3,370.4h1.6c1,0,1.6,0,1.8-0.1
		c0.3-0.1,0.5-0.3,0.6-0.6s0.2-0.7,0.2-1.2c0-0.5-0.1-0.9-0.2-1.2s-0.4-0.5-0.7-0.6c-0.2-0.1-0.8-0.1-1.7-0.1h-1.7V370.4z"/>
	<path class="st0" d="M59.9,379.1v-15h7.9v2.5H62v3.3h5.3v2.5H62v4.1h5.9v2.5H59.9z"/>
	<path class="st0" d="M69.7,364h3.9c1,0,1.7,0.1,2.2,0.4c0.5,0.3,1,0.7,1.4,1.3c0.4,0.6,0.8,1.4,1,2.4s0.4,2.2,0.4,3.6
		c0,1.3-0.1,2.4-0.4,3.4c-0.3,1-0.6,1.7-1,2.3s-0.9,1-1.4,1.3c-0.5,0.3-1.3,0.4-2.1,0.4h-4V364z M71.8,366.6v9.9h1.6
		c0.7,0,1.2-0.1,1.5-0.2c0.3-0.2,0.6-0.4,0.8-0.7c0.2-0.3,0.4-0.8,0.5-1.4c0.1-0.7,0.2-1.5,0.2-2.6c0-1.1-0.1-2-0.2-2.6
		c-0.1-0.6-0.3-1.1-0.6-1.5s-0.6-0.6-1-0.7c-0.3-0.1-0.9-0.1-1.7-0.1H71.8z"/>
	<path class="st0" d="M80.4,364h2.1v8.1c0,1.3,0,2.1,0.1,2.5c0.1,0.7,0.3,1.2,0.7,1.5c0.4,0.4,0.8,0.5,1.4,0.5
		c0.5,0,0.9-0.1,1.2-0.4c0.3-0.3,0.5-0.6,0.6-1.1c0.1-0.5,0.2-1.4,0.2-2.9V364h2.1v7.9c0,2-0.1,3.5-0.3,4.4
		c-0.2,0.9-0.6,1.6-1.2,2.2s-1.5,0.8-2.6,0.8c-1.1,0-2-0.2-2.6-0.7c-0.6-0.5-1.1-1.1-1.3-1.9s-0.4-2.4-0.4-4.6V364z"/>
	<path class="st0" d="M90.1,379.1v-2.7l5.6-9.7h-4.9V364h7.7v2.4l-5.8,10.1h6v2.5H90.1z"/>
	<path class="st0" d="M100.1,379.1v-15h7.9v2.5h-5.7v3.3h5.3v2.5h-5.3v4.1h5.9v2.5H100.1z"/>
	<path class="st0" d="M116.7,373.5l2.1,0.9c-0.3,1.7-0.9,2.9-1.6,3.7s-1.7,1.2-2.8,1.2c-1.4,0-2.5-0.6-3.4-1.9
		c-1-1.4-1.5-3.4-1.5-5.8c0-2.6,0.5-4.6,1.5-6c0.9-1.3,2-1.9,3.5-1.9c1.2,0,2.2,0.5,3,1.4c0.6,0.7,1,1.7,1.3,3l-2.1,0.7
		c-0.1-0.8-0.4-1.4-0.8-1.9c-0.4-0.4-0.9-0.7-1.4-0.7c-0.8,0-1.4,0.4-1.9,1.2s-0.7,2.1-0.7,3.9c0,1.9,0.2,3.2,0.7,4
		c0.5,0.8,1.1,1.2,1.9,1.2c0.6,0,1.1-0.3,1.5-0.8S116.5,374.6,116.7,373.5z M113.4,363l1-3.1h2.3l-2,3.1H113.4z"/>
	<path class="st0" d="M120.6,379.1v-15h7.9v2.5h-5.7v3.3h5.3v2.5h-5.3v4.1h5.9v2.5H120.6z"/>
	<path class="st0" d="M133.6,379.1v-2.7l5.6-9.7h-4.9V364h7.7v2.4l-5.8,10.1h6v2.5H133.6z"/>
	<path class="st0" d="M153.1,379.1h-2.3l-0.9-3.4h-4.2l-0.9,3.4h-2.3l4.1-15h2.3L153.1,379.1z M149.2,373.1l-1.5-5.6l-1.4,5.6H149.2
		z"/>
	<path class="st0" d="M157.8,379.1v-15h3.4c1.3,0,2.1,0.1,2.5,0.2c0.6,0.2,1.1,0.7,1.6,1.5c0.4,0.8,0.6,1.7,0.6,2.9
		c0,1.1-0.2,2-0.5,2.7c-0.4,0.7-0.8,1.3-1.3,1.5c-0.5,0.3-1.4,0.4-2.7,0.4H160v5.7H157.8z M160,366.6v4.3h1.2c0.8,0,1.3-0.1,1.6-0.2
		c0.3-0.1,0.5-0.4,0.7-0.7c0.2-0.3,0.3-0.8,0.3-1.2c0-0.5-0.1-0.9-0.3-1.3s-0.4-0.6-0.7-0.7s-0.9-0.2-1.8-0.2H160z"/>
	<path class="st0" d="M167.7,379.1v-15h4.5c1.1,0,2,0.1,2.5,0.4c0.5,0.3,0.9,0.7,1.2,1.4c0.3,0.7,0.5,1.5,0.5,2.4
		c0,1.2-0.2,2.1-0.7,2.8c-0.5,0.7-1.2,1.2-2.1,1.4c0.5,0.4,0.8,0.8,1.1,1.3s0.7,1.3,1.2,2.4l1.3,2.9h-2.5l-1.5-3.3
		c-0.6-1.2-0.9-1.9-1.1-2.2c-0.2-0.3-0.4-0.5-0.6-0.6c-0.2-0.1-0.6-0.2-1.1-0.2h-0.4v6.3H167.7z M169.8,370.4h1.6c1,0,1.6,0,1.8-0.1
		c0.3-0.1,0.5-0.3,0.6-0.6s0.2-0.7,0.2-1.2c0-0.5-0.1-0.9-0.2-1.2s-0.4-0.5-0.7-0.6c-0.2-0.1-0.8-0.1-1.7-0.1h-1.7V370.4z"/>
	<path class="st0" d="M177.9,371.6c0-1.8,0.2-3.3,0.7-4.4c0.5-1.2,1-2,1.8-2.6c0.7-0.6,1.6-0.9,2.7-0.9c1.5,0,2.7,0.7,3.7,2
		s1.4,3.3,1.4,5.8c0,2.5-0.5,4.5-1.5,5.9c-0.9,1.3-2.1,1.9-3.6,1.9c-1.5,0-2.7-0.6-3.6-1.9C178.4,376,177.9,374.1,177.9,371.6z
		 M180.1,371.5c0,1.7,0.3,3,0.8,3.9c0.6,0.9,1.3,1.3,2.1,1.3c0.8,0,1.5-0.4,2.1-1.3c0.6-0.9,0.8-2.2,0.8-4c0-1.7-0.3-3-0.8-3.9
		s-1.2-1.3-2.1-1.3s-1.6,0.4-2.1,1.3C180.4,368.5,180.1,369.8,180.1,371.5z"/>
	<path class="st0" d="M189.8,379.1v-15h2.1v15H189.8z"/>
	<path class="st0" d="M193.1,379.1v-2.7l5.6-9.7h-4.9V364h7.7v2.4l-5.8,10.1h6v2.5H193.1z"/>
	<path class="st0" d="M205.7,379.1l-3.8-15h2.3l2.7,11.1l2.6-11.1h2.3l-3.8,15H205.7z"/>
	<path class="st0" d="M212.4,371.6c0-1.8,0.2-3.3,0.7-4.4c0.5-1.2,1-2,1.8-2.6c0.7-0.6,1.6-0.9,2.7-0.9c1.5,0,2.7,0.7,3.7,2
		s1.4,3.3,1.4,5.8c0,2.5-0.5,4.5-1.5,5.9c-0.9,1.3-2.1,1.9-3.6,1.9c-1.5,0-2.7-0.6-3.6-1.9C212.9,376,212.4,374.1,212.4,371.6z
		 M214.6,371.5c0,1.7,0.3,3,0.8,3.9c0.6,0.9,1.3,1.3,2.1,1.3c0.8,0,1.5-0.4,2.1-1.3c0.6-0.9,0.8-2.2,0.8-4c0-1.7-0.3-3-0.8-3.9
		s-1.2-1.3-2.1-1.3s-1.6,0.4-2.1,1.3C214.9,368.5,214.6,369.8,214.6,371.5z"/>
	<path class="st0" d="M224.4,364h3.9c1,0,1.7,0.1,2.2,0.4c0.5,0.3,1,0.7,1.4,1.3c0.4,0.6,0.8,1.4,1,2.4s0.4,2.2,0.4,3.6
		c0,1.3-0.1,2.4-0.4,3.4c-0.3,1-0.6,1.7-1,2.3s-0.9,1-1.4,1.3c-0.5,0.3-1.3,0.4-2.1,0.4h-4V364z M226.5,366.6v9.9h1.6
		c0.7,0,1.2-0.1,1.5-0.2c0.3-0.2,0.6-0.4,0.8-0.7c0.2-0.3,0.4-0.8,0.5-1.4c0.1-0.7,0.2-1.5,0.2-2.6c0-1.1-0.1-2-0.2-2.6
		c-0.1-0.6-0.3-1.1-0.6-1.5s-0.6-0.6-1-0.7c-0.3-0.1-0.9-0.1-1.7-0.1H226.5z"/>
	<path class="st0" d="M235.1,379.1v-15h2.1l4.3,10v-10h2v15h-2.1l-4.3-9.8v9.8H235.1z"/>
	<path class="st0" d="M249.5,364h2.1v9.5c0,1.5-0.1,2.7-0.4,3.4c-0.3,0.8-0.7,1.3-1.2,1.7s-1.2,0.6-1.9,0.6c-1,0-1.8-0.4-2.4-1.2
		s-0.9-2-0.9-3.7l2-0.3c0,0.9,0.1,1.5,0.3,1.9c0.2,0.5,0.6,0.8,1,0.8c0.4,0,0.8-0.2,1-0.5c0.2-0.4,0.3-1.2,0.3-2.4V364z"/>
	<path class="st0" d="M253.9,364h2.1v8.1c0,1.3,0,2.1,0.1,2.5c0.1,0.7,0.3,1.2,0.7,1.5c0.4,0.4,0.8,0.5,1.4,0.5
		c0.5,0,0.9-0.1,1.2-0.4c0.3-0.3,0.5-0.6,0.6-1.1c0.1-0.5,0.2-1.4,0.2-2.9V364h2.1v7.9c0,2-0.1,3.5-0.3,4.4
		c-0.2,0.9-0.6,1.6-1.2,2.2s-1.5,0.8-2.6,0.8c-1.1,0-2-0.2-2.6-0.7c-0.6-0.5-1.1-1.1-1.3-1.9s-0.4-2.4-0.4-4.6V364z"/>
	<path class="st0" d="M277.7,379.1h-2.3l-0.9-3.4h-4.2l-0.9,3.4h-2.3l4.1-15h2.3L277.7,379.1z M273.8,373.1l-1.5-5.6l-1.4,5.6H273.8
		z"/>
	<path class="st0" d="M278.8,364h3.9c1,0,1.7,0.1,2.2,0.4c0.5,0.3,1,0.7,1.4,1.3c0.4,0.6,0.8,1.4,1,2.4s0.4,2.2,0.4,3.6
		c0,1.3-0.1,2.4-0.4,3.4c-0.3,1-0.6,1.7-1,2.3s-0.9,1-1.4,1.3c-0.5,0.3-1.3,0.4-2.1,0.4h-4V364z M280.9,366.6v9.9h1.6
		c0.7,0,1.2-0.1,1.5-0.2c0.3-0.2,0.6-0.4,0.8-0.7c0.2-0.3,0.4-0.8,0.5-1.4c0.1-0.7,0.2-1.5,0.2-2.6c0-1.1-0.1-2-0.2-2.6
		c-0.1-0.6-0.3-1.1-0.6-1.5s-0.6-0.6-1-0.7c-0.3-0.1-0.9-0.1-1.7-0.1H280.9z"/>
	<path class="st0" d="M289.4,379.1v-15h2.1v15H289.4z"/>
	<path class="st0" d="M296,379.1v-12.5h-3.1V364h8.4v2.5h-3.1v12.5H296z"/>
	<path class="st0" d="M302.6,379.1v-15h2.1v15H302.6z"/>
	<path class="st0" d="M309.4,379.1l-3.8-15h2.3l2.7,11.1l2.6-11.1h2.3l-3.8,15H309.4z"/>
	<path class="st0" d="M325.1,379.1h-2.3l-0.9-3.4h-4.2l-0.9,3.4h-2.3l4.1-15h2.3L325.1,379.1z M321.1,373.1l-1.5-5.6l-1.4,5.6H321.1
		z"/>
	<path class="st0" d="M326.1,376.2h2v2.1c0,1.2-0.1,2-0.4,2.6c-0.3,0.7-0.8,1.2-1.4,1.6l-0.4-1.2c0.4-0.2,0.7-0.5,0.9-0.8
		c0.2-0.3,0.3-0.8,0.3-1.4h-1V376.2z"/>
	<path class="st0" d="M333.5,379.1v-2.7l5.6-9.7h-4.9V364h7.7v2.4l-5.8,10.1h6v2.5H333.5z"/>
	<path class="st0" d="M353,379.1h-2.3l-0.9-3.4h-4.2l-0.9,3.4h-2.3l4.1-15h2.3L353,379.1z M349,373.1l-1.5-5.6l-1.4,5.6H349z"/>
	<path class="st0" d="M360.9,373.5l2.1,0.9c-0.3,1.7-0.9,2.9-1.6,3.7s-1.7,1.2-2.8,1.2c-1.4,0-2.5-0.6-3.4-1.9
		c-1-1.4-1.5-3.4-1.5-5.8c0-2.6,0.5-4.6,1.5-6c0.9-1.3,2-1.9,3.5-1.9c1.2,0,2.2,0.5,3,1.4c0.6,0.7,1,1.7,1.3,3l-2.1,0.7
		c-0.1-0.8-0.4-1.4-0.8-1.9s-0.9-0.7-1.4-0.7c-0.8,0-1.4,0.4-1.9,1.2s-0.7,2.1-0.7,3.9c0,1.9,0.2,3.2,0.7,4c0.5,0.8,1.1,1.2,1.9,1.2
		c0.6,0,1-0.3,1.5-0.8S360.7,374.6,360.9,373.5z M356.1,360h1.6l0.8,1.5l0.8-1.5h1.6l-1.5,3h-1.9L356.1,360z"/>
	<path class="st0" d="M364.7,379.1v-15h2.1v15H364.7z"/>
	<path class="st0" d="M368.9,379.1v-15h2.1l4.3,10v-10h2v15h-2.1l-4.3-9.8v9.8H368.9z"/>
	<path class="st0" d="M389.1,379.1h-2.3l-0.9-3.4h-4.2l-0.9,3.4h-2.3l4.1-15h2.3L389.1,379.1z M385.2,373.1l-1.5-5.6l-1.4,5.6H385.2
		z"/>
	<path class="st0" d="M393.7,379.1v-15h2.1v15H393.7z"/>
	<path class="st0" d="M401.1,379.1v-2.7l5.6-9.7h-4.9V364h7.7v2.4l-5.8,10.1h6v2.5H401.1z"/>
	<path class="st0" d="M420.6,379.1h-2.3l-0.9-3.4h-4.2l-0.9,3.4H410l4.1-15h2.3L420.6,379.1z M416.6,373.1l-1.5-5.6l-1.4,5.6H416.6z
		"/>
	<path class="st0" d="M428.5,373.5l2.1,0.9c-0.3,1.7-0.9,2.9-1.6,3.7c-0.8,0.8-1.7,1.2-2.8,1.2c-1.4,0-2.5-0.6-3.4-1.9
		c-1-1.4-1.5-3.4-1.5-5.8c0-2.6,0.5-4.6,1.5-6c0.9-1.3,2-1.9,3.5-1.9c1.2,0,2.2,0.5,3,1.4c0.6,0.7,1,1.7,1.3,3l-2.1,0.7
		c-0.1-0.8-0.4-1.4-0.8-1.9c-0.4-0.4-0.9-0.7-1.4-0.7c-0.8,0-1.4,0.4-1.9,1.2c-0.5,0.8-0.7,2.1-0.7,3.9c0,1.9,0.2,3.2,0.7,4
		c0.5,0.8,1.1,1.2,1.9,1.2c0.6,0,1-0.3,1.5-0.8C428,375.4,428.3,374.6,428.5,373.5z M423.7,360h1.6l0.8,1.5l0.8-1.5h1.6l-1.5,3h-1.9
		L423.7,360z"/>
	<path class="st0" d="M432.3,379.1v-15h2.1v15H432.3z"/>
	<path class="st0" d="M436.5,379.1v-15h2.1l4.3,10v-10h2v15h-2.1l-4.3-9.8v9.8H436.5z"/>
	<path class="st0" d="M446.6,374.2l2.1-0.3c0.2,1.9,1,2.9,2.3,2.9c0.6,0,1.2-0.2,1.5-0.6s0.6-0.9,0.6-1.5c0-0.3-0.1-0.6-0.2-0.9
		c-0.1-0.2-0.3-0.4-0.6-0.6c-0.3-0.2-0.9-0.4-1.9-0.8c-0.9-0.3-1.6-0.7-2-1c-0.4-0.4-0.8-0.9-1-1.5c-0.2-0.6-0.4-1.3-0.4-2
		c0-0.8,0.2-1.6,0.5-2.2c0.3-0.7,0.8-1.2,1.3-1.5c0.6-0.3,1.3-0.5,2.1-0.5c1.2,0,2.2,0.4,2.9,1.2c0.7,0.8,1.1,1.9,1.1,3.4l-2.1,0.1
		c-0.1-0.8-0.3-1.4-0.6-1.7c-0.3-0.3-0.8-0.5-1.3-0.5c-0.6,0-1,0.1-1.3,0.4c-0.3,0.3-0.5,0.6-0.5,1c0,0.4,0.1,0.8,0.4,1
		c0.3,0.3,0.9,0.6,1.9,0.9c1.1,0.4,1.8,0.7,2.3,1.1s0.8,0.9,1.1,1.5s0.4,1.4,0.4,2.3c0,1.3-0.3,2.4-1,3.3s-1.8,1.3-3.2,1.3
		C448.3,379.3,446.9,377.6,446.6,374.2z"/>
	<path class="st0" d="M457,379.1v-15h2.1v6.7l4.3-6.7h2.9l-4,5.9l4.2,9.2h-2.8l-2.9-7.1l-1.7,2.5v4.5H457z"/>
	<path class="st0" d="M467.6,379.1v-15h2.1v15H467.6z"/>
	<path class="st0" d="M471.8,379.1v-15h2.1v5.9h4.2V364h2.1v15h-2.1v-6.6h-4.2v6.6H471.8z"/>
	<path class="st0" d="M486,374.2l2.1-0.3c0.2,1.9,1,2.9,2.3,2.9c0.6,0,1.2-0.2,1.5-0.6s0.6-0.9,0.6-1.5c0-0.3-0.1-0.6-0.2-0.9
		c-0.1-0.2-0.3-0.4-0.6-0.6c-0.3-0.2-0.9-0.4-1.9-0.8c-0.9-0.3-1.6-0.7-2-1c-0.4-0.4-0.8-0.9-1-1.5c-0.2-0.6-0.4-1.3-0.4-2
		c0-0.8,0.2-1.6,0.5-2.2c0.3-0.7,0.8-1.2,1.3-1.5c0.6-0.3,1.3-0.5,2.1-0.5c1.2,0,2.2,0.4,2.9,1.2c0.7,0.8,1.1,1.9,1.1,3.4l-2.1,0.1
		c-0.1-0.8-0.3-1.4-0.6-1.7c-0.3-0.3-0.8-0.5-1.3-0.5c-0.6,0-1,0.1-1.3,0.4c-0.3,0.3-0.5,0.6-0.5,1c0,0.4,0.1,0.8,0.4,1
		c0.3,0.3,0.9,0.6,1.9,0.9c1.1,0.4,1.8,0.7,2.3,1.1s0.8,0.9,1.1,1.5s0.4,1.4,0.4,2.3c0,1.3-0.3,2.4-1,3.3s-1.8,1.3-3.2,1.3
		C487.7,379.3,486.3,377.6,486,374.2z"/>
	<path class="st0" d="M496.4,379.1v-15h3.2l1.9,10.3l1.9-10.3h3.2v15h-2v-11.8l-2.1,11.8h-2.1l-2.1-11.8v11.8H496.4z"/>
	<path class="st0" d="M508.7,379.1v-15h7.8v2.5h-5.7v3.3h5.3v2.5h-5.3v4.1h5.9v2.5H508.7z"/>
	<path class="st0" d="M518,374.2l2.1-0.3c0.2,1.9,1,2.9,2.3,2.9c0.6,0,1.2-0.2,1.5-0.6c0.4-0.4,0.6-0.9,0.6-1.5
		c0-0.3-0.1-0.6-0.2-0.9c-0.1-0.2-0.3-0.4-0.6-0.6s-0.9-0.4-1.9-0.8c-0.9-0.3-1.6-0.7-2-1c-0.4-0.4-0.8-0.9-1-1.5
		c-0.3-0.6-0.4-1.3-0.4-2c0-0.8,0.2-1.6,0.5-2.2s0.8-1.2,1.3-1.5c0.6-0.3,1.3-0.5,2.1-0.5c1.2,0,2.2,0.4,2.9,1.2s1.1,1.9,1.1,3.4
		l-2.1,0.1c-0.1-0.8-0.3-1.4-0.6-1.7c-0.3-0.3-0.8-0.5-1.3-0.5s-1,0.1-1.3,0.4s-0.5,0.6-0.5,1c0,0.4,0.1,0.8,0.4,1s0.9,0.6,1.9,0.9
		c1.1,0.4,1.8,0.7,2.3,1.1c0.5,0.4,0.8,0.9,1.1,1.5s0.4,1.4,0.4,2.3c0,1.3-0.3,2.4-1,3.3s-1.8,1.3-3.2,1.3
		C519.8,379.3,518.3,377.6,518,374.2z M520,360h1.6l0.8,1.5l0.8-1.5h1.6l-1.5,3h-1.9L520,360z"/>
	<path class="st0" d="M538,379.1h-2.3l-0.9-3.4h-4.2l-0.9,3.4h-2.3l4.1-15h2.3L538,379.1z M534.1,373.1l-1.5-5.6l-1.4,5.6H534.1z"/>
</g>
<g>
	<g>
		<path class="st1" d="M476.4,179.5c-1,0.9-2,1.8-3,2.6c-6.8,6.4-14.7,10.8-23.2,13.9c-2.3,0.9-4.6,1.5-6.9,2.4
			c-0.5,0.2-1.1,0.7-1.5,1.2c-5.7,9.4-12.1,18.3-19.5,26.4c-3.3,3.7-6.8,7.3-10.9,10.2c-1.8,1.3-3.8,2.4-6,2.4
			c-0.6,0-1.2-0.2-2.1-0.3c1.6-1.2,2.9-2.2,4.1-3.2c5.1-4,9.9-8.3,14.4-13c8.4-8.7,15.2-18.4,20.5-29c0.7-1.4,0.6-2.2-0.3-3.2
			c-5.4-6.5-11-12.8-15.2-20.2c-5.1-8.9-7.6-18.9-7.9-29.7c0-1.8,0.4-3.7,1-5.4c0.5-1.7,1.7-1.9,3.1-1.1
			c6.8,4.2,11.3,10.4,14.5,17.8c4.8,10.9,6.6,22.8,6.7,35.2c0,0.9,0,1.8,0.3,2.7c0.2-0.4,0.4-0.9,0.6-1.3c5.6-13.3,8.7-27,9.9-40.9
			c0.5-5.8,0.5-11.5,0.8-17.3c0-1-0.4-1.4-1.3-1.7c-8.8-2.7-16.7-6.9-23.3-13.1c-6.6-6.1-11.5-13.5-13.8-22.6
			c-0.1-0.4-0.2-0.8-0.3-1.2c0-0.1,0-0.3,0.1-0.6c19.1,3.8,30.3,16.6,38.2,33.3c-0.2-8.5-1.2-16.8-2.3-25.1c0.2,0.8,0.4,1.7,0.5,2.5
			c0.1,0,0.2,0,0.3,0c0-0.5,0.1-1.1,0.1-1.6c-0.5-11.4,0.9-22.7,5.2-33.9c1.8-4.7,3.7-9.3,6.7-13.4c1.3-1.8,2.9-3.3,4.6-5.2
			c0.2,1.3,0.4,2.3,0.6,3.3c1.4,8.2,1.5,16.4-1.1,24.9c-2,6.6-5.3,12.7-9,18.7c-1.8,2.8-3.5,5.6-5.4,8.3c-0.9,1.3-1.2,2.6-0.9,3.9
			c0.5,2.6,0.9,5.3,1.4,7.9c1.8,9.5,1.7,19.3,1.3,29.1c-0.1,2.6-0.2,5.3-0.2,7.9c0.1,0,0.2,0,0.3,0.1c0.1-0.4,0.3-0.7,0.5-1.1
			c2.3-6.2,4.6-12.4,7.8-18.3c2.9-5.4,6.4-10.4,10.7-14.9c4.4-4.4,9.5-7.4,15.2-9.2c0.4-0.1,0.7-0.2,1.5-0.3
			c-0.9,3.2-1.5,6.3-2.5,9.3c-4.9,14-14.2,24.5-26.6,32.5c-2,1.3-4.2,2.4-6.3,3.7c-0.4,0.3-0.9,0.8-1.1,1.2
			c-0.3,1.1-0.3,2.3-0.5,3.4c-2.4,11.9-5.1,23.8-10.5,35.1c-0.5,1-1,2-1.5,3c-0.2,0.4-0.2,0.8-0.4,1.1c0.1,0,0.2,0.1,0.3,0.1
			c0.5-0.8,1.1-1.6,1.6-2.3c6.9-10,14.5-19.3,25-25.6c5.3-3.2,10.8-5.3,17-6.7c-1.5,2.8-2.8,5.3-4.3,7.7c-1.2,2-2.7,3.9-4.1,5.8
			c-0.2,0.3-0.4,0.7-0.6,1C478.3,177.3,477.3,178.4,476.4,179.5z"/>
	</g>
	<g>
		<path class="st1" d="M412.5,48.6c15.9,3.9,27.3,13,34.9,27c-0.3-1.2-0.5-2.4-0.8-3.6c-0.3-1.2-0.5-2.5-0.6-3.8
			c2.9,7.5,4.9,15.3,6,23.4c-0.4-1.6-0.8-3.1-1.1-4.6c-0.2-1-0.7-1.5-1.6-1.9c-8.9-3.4-17.2-7.8-24.1-14.3
			c-5.6-5.2-9.9-11.3-11.9-19.1c-0.2-0.8-0.3-1.5-0.5-2.3C412.7,49.3,412.6,49.1,412.5,48.6z"/>
	</g>
	<g>
		<path class="st1" d="M443.9,63.3c-1.9-1.8-3.5-3.4-5.1-5c-7.2-7.2-13.6-15-16.5-25.4c-1.5-5.3-2.2-13.4-1.5-18
			c1.4,0.9,2.7,1.8,4,2.7c9.8,7.6,15,18.2,17.2,30.6C442.8,53.1,443.2,58.1,443.9,63.3z"/>
	</g>
</g>
<g>
	<g>
		<path class="st1" d="M104.3,175.1c1,0.9,2,1.8,3,2.6c6.8,6.4,14.7,10.8,23.2,13.9c2.3,0.9,4.6,1.5,6.9,2.4
			c0.5,0.2,1.1,0.7,1.4,1.2c5.7,9.4,12.1,18.3,19.5,26.4c3.3,3.7,6.8,7.3,10.9,10.2c1.8,1.3,3.8,2.4,6,2.4c0.6,0,1.2-0.2,2.1-0.3
			c-1.6-1.2-2.9-2.2-4.1-3.2c-5.1-4-9.9-8.3-14.4-13c-8.4-8.7-15.2-18.4-20.5-29c-0.7-1.4-0.6-2.2,0.3-3.2
			c5.4-6.5,10.9-12.8,15.2-20.2c5.1-8.9,7.6-18.9,7.9-29.7c0.1-1.8-0.4-3.7-1-5.4c-0.6-1.7-1.7-1.9-3.1-1.1
			c-6.8,4.2-11.3,10.4-14.6,17.8c-4.8,10.9-6.6,22.8-6.7,35.2c0,0.9,0,1.8-0.3,2.7c-0.2-0.4-0.4-0.9-0.6-1.3
			c-5.6-13.3-8.7-27-9.9-40.9c-0.5-5.8-0.5-11.5-0.8-17.3c-0.1-1.1,0.3-1.4,1.3-1.7c8.8-2.7,16.7-6.9,23.3-13.1
			c6.6-6.1,11.5-13.5,13.8-22.6c0.1-0.4,0.2-0.8,0.3-1.2c0-0.1,0-0.3-0.1-0.6c-19.1,3.8-30.3,16.6-38.2,33.3
			c0.2-8.5,1.2-16.8,2.3-25.1c-0.2,0.8-0.4,1.7-0.6,2.5c-0.1,0-0.2,0-0.3,0c0-0.5-0.1-1.1-0.1-1.6c0.5-11.4-0.8-22.7-5.2-33.9
			c-1.8-4.7-3.7-9.3-6.7-13.4c-1.3-1.8-2.9-3.3-4.6-5.2c-0.2,1.3-0.4,2.3-0.6,3.3c-1.4,8.2-1.5,16.4,1.1,24.9
			c2.1,6.6,5.3,12.7,9,18.7c1.8,2.8,3.5,5.6,5.4,8.3c0.9,1.3,1.2,2.6,0.9,3.9c-0.4,2.6-0.9,5.3-1.4,7.9c-1.8,9.5-1.7,19.3-1.3,29.1
			c0.1,2.6,0.2,5.3,0.2,7.9c-0.1,0-0.2,0-0.3,0.1c-0.2-0.4-0.3-0.7-0.5-1.1c-2.3-6.2-4.6-12.4-7.8-18.3c-2.9-5.4-6.4-10.4-10.7-14.9
			c-4.4-4.4-9.5-7.4-15.2-9.2c-0.4-0.1-0.7-0.2-1.5-0.3c0.9,3.2,1.5,6.3,2.5,9.3c4.9,14,14.2,24.5,26.6,32.5
			c2.1,1.3,4.2,2.4,6.3,3.7c0.4,0.3,0.9,0.8,1.1,1.2c0.3,1.1,0.3,2.3,0.5,3.4c2.4,11.9,5.1,23.8,10.5,35.1c0.5,1,1,2,1.5,3
			c0.2,0.4,0.2,0.8,0.4,1.1c-0.1,0-0.2,0.1-0.3,0.1c-0.5-0.8-1.1-1.6-1.6-2.3c-6.9-10-14.5-19.3-25-25.6c-5.3-3.2-10.8-5.3-17-6.7
			c1.5,2.8,2.8,5.3,4.3,7.7c1.2,2,2.7,3.9,4.1,5.8c0.2,0.3,0.4,0.7,0.6,1C102.4,172.9,103.4,174,104.3,175.1z"/>
	</g>
	<g>
		<path class="st1" d="M168.2,44.3c-15.9,3.9-27.3,13-34.9,27c0.3-1.2,0.6-2.4,0.8-3.6c0.3-1.2,0.5-2.5,0.6-3.8
			c-2.9,7.5-4.9,15.3-6.1,23.4c0.4-1.6,0.8-3.1,1.1-4.6c0.2-1,0.7-1.5,1.6-1.9c8.9-3.4,17.2-7.8,24.1-14.3
			c5.6-5.2,9.9-11.3,11.9-19.1c0.2-0.8,0.3-1.5,0.5-2.3C168,44.9,168.1,44.7,168.2,44.3z"/>
	</g>
	<g>
		<path class="st1" d="M136.8,58.9c1.9-1.8,3.5-3.4,5.1-5c7.2-7.2,13.6-15,16.6-25.4c1.5-5.3,2.2-13.4,1.6-18
			c-1.4,0.9-2.7,1.8-4,2.7c-9.8,7.6-14.9,18.2-17.2,30.6C137.9,48.7,137.4,53.7,136.8,58.9z"/>
	</g>
</g>
</svg>
