<?xml version="1.0" encoding="utf-8"?>
<!-- Generator: Adobe Illustrator 24.3.0, SVG Export Plug-In . SVG Version: 6.00 Build 0)  -->
<svg version="1.1" id="Layer_1" xmlns="http://www.w3.org/2000/svg" xmlns:xlink="http://www.w3.org/1999/xlink" x="0px" y="0px"
	 viewBox="0 0 433 249.8" style="enable-background:new 0 0 433 249.8;" xml:space="preserve">
<style type="text/css">
	.st0{fill:#FFFFFF;}
</style>
<g>
	<g>
		<path class="st0" d="M206,130.6c0,0,0,7-2,8s2,4,6,2s4-8,4-8s10-1,15-11c0,0,0-1-1-1s-8,11-13,8c0,0,0-3,3-10s6-30,32-81
			c0,0,2-3,2-4s-19,9-42,49c0,0-9-27-25-19s-12,39,2,55c0,0-13,21-34,21s-22-25-22-25s1-34,27-32c0,0,9,0,11,10s0,31-21,29
			c0,0-2,1,1,2s13,2,19-9s4-22,4-22s-3-23-25-16s-29,53-1,64c0,0,24,8,42-20C188,120.6,198,131.6,206,130.6z M243,42.6c0,0,2-1,1,1
			c0,0-28,50-31,69c0,0-1,2-1-2s0-14-1-26C211,84.6,233,48.6,243,42.6z M210,91.6c0,4,2,25-3,38c0,0-7,0-17-11c0,0,16-23,18-30
			C208,88.6,210,87.6,210,91.6z M179,89.6c2-15,7-22,13-22s13,3,16,18c0,0-9,14-19,31C189,116.6,177,104.6,179,89.6z"/>
	</g>
	<g>
		<path class="st0" d="M274,128.6c-14,24-23,54-23,54s-7,23-32,28s-29-18-29-18s-7-25,12-38s27,3,27,3s6,13-3,27s-22,5-25,4
			s-1,2-1,2c8,6,17,4,17,4s15-5,16-20s-2-23-9-28s-19-1-19-1c-28,14-18,48-18,48s5,19,25,20s29-8,39-20s21-42,26-59s12-20,12-20
			S288,104.6,274,128.6z"/>
	</g>
	<g>
		<path class="st0" d="M304,100.6c-4,1-18,1-35,1s-21,4-21,4c-21,9-20,30-20,30s0,20,17,17s25-32,23-33s-3,5-3,5c-12,24-23,24-30,22
			s-8-25,5-34s32-6,48-4s21-3,23-6S308,99.6,304,100.6z"/>
	</g>
	<g>
		<g>
			<path class="st0" d="M402.5,179.2c-1,0.9-2,1.8-3,2.6c-6.8,6.4-14.7,10.8-23.2,13.9c-2.3,0.9-4.6,1.5-6.9,2.4
				c-0.5,0.2-1.1,0.7-1.5,1.2c-5.7,9.4-12.1,18.3-19.5,26.4c-3.3,3.7-6.8,7.3-10.9,10.2c-1.8,1.3-3.8,2.4-6,2.4
				c-0.6,0-1.2-0.2-2.1-0.3c1.6-1.2,2.9-2.2,4.1-3.2c5.1-4,9.9-8.3,14.4-13c8.4-8.7,15.2-18.4,20.5-29c0.7-1.4,0.6-2.2-0.3-3.2
				c-5.4-6.5-11-12.8-15.2-20.2c-5.1-8.9-7.6-18.9-7.9-29.7c0-1.8,0.4-3.7,1-5.4c0.5-1.7,1.7-1.9,3.1-1.1
				c6.8,4.2,11.3,10.4,14.5,17.8c4.8,10.9,6.6,22.8,6.7,35.2c0,0.9,0,1.8,0.3,2.7c0.2-0.4,0.4-0.9,0.6-1.3c5.6-13.3,8.7-27,9.9-40.9
				c0.5-5.8,0.5-11.5,0.8-17.3c0-1.1-0.4-1.4-1.3-1.7c-8.8-2.7-16.7-6.9-23.3-13.1c-6.6-6.1-11.5-13.5-13.8-22.6
				c-0.1-0.4-0.2-0.8-0.3-1.2c0-0.1,0-0.3,0.1-0.6c19.1,3.8,30.3,16.6,38.2,33.3c-0.2-8.5-1.2-16.8-2.3-25.1
				c0.2,0.8,0.4,1.7,0.5,2.5c0.1,0,0.2,0,0.3,0c0-0.5,0.1-1.1,0.1-1.6c-0.5-11.4,0.9-22.7,5.2-33.9c1.8-4.7,3.7-9.3,6.7-13.4
				c1.3-1.8,2.9-3.3,4.6-5.2c0.2,1.3,0.4,2.3,0.6,3.3c1.4,8.2,1.5,16.4-1.1,24.9c-2,6.6-5.3,12.7-9,18.7c-1.8,2.8-3.5,5.6-5.4,8.3
				c-0.9,1.3-1.2,2.6-0.9,3.9c0.5,2.6,0.9,5.3,1.4,7.9c1.8,9.5,1.7,19.3,1.3,29.1c-0.1,2.6-0.2,5.3-0.2,7.9c0.1,0,0.2,0,0.3,0.1
				c0.1-0.4,0.3-0.7,0.5-1.1c2.3-6.2,4.6-12.4,7.8-18.3c2.9-5.4,6.4-10.4,10.7-14.9c4.4-4.4,9.5-7.4,15.2-9.2
				c0.4-0.1,0.7-0.2,1.5-0.3c-0.9,3.2-1.5,6.3-2.5,9.3c-4.9,14-14.2,24.5-26.6,32.5c-2,1.3-4.2,2.4-6.3,3.7
				c-0.4,0.3-0.9,0.8-1.1,1.2c-0.3,1.1-0.3,2.3-0.5,3.4c-2.4,11.9-5.1,23.8-10.5,35.1c-0.5,1-1,2-1.5,3c-0.2,0.4-0.2,0.8-0.4,1.1
				c0.1,0,0.2,0.1,0.3,0.1c0.5-0.8,1.1-1.6,1.6-2.3c6.9-10,14.5-19.3,25-25.6c5.3-3.2,10.8-5.3,17-6.7c-1.5,2.8-2.8,5.3-4.3,7.7
				c-1.2,2-2.7,3.9-4.1,5.8c-0.2,0.3-0.4,0.7-0.6,1C404.4,177.1,403.5,178.1,402.5,179.2z"/>
		</g>
		<g>
			<path class="st0" d="M338.6,48.4c15.9,3.9,27.3,13,34.9,27c-0.3-1.2-0.5-2.4-0.8-3.6c-0.3-1.2-0.5-2.5-0.6-3.8
				c2.9,7.5,4.9,15.3,6,23.4c-0.4-1.6-0.8-3.1-1.1-4.6c-0.2-1-0.7-1.5-1.6-1.9c-8.9-3.4-17.2-7.8-24.1-14.3
				c-5.6-5.2-9.9-11.3-11.9-19.1c-0.2-0.8-0.3-1.5-0.5-2.3C338.8,49,338.8,48.8,338.6,48.4z"/>
		</g>
		<g>
			<path class="st0" d="M370.1,63c-1.9-1.8-3.5-3.4-5.1-5c-7.2-7.2-13.6-15-16.5-25.4c-1.5-5.3-2.2-13.4-1.5-18
				c1.4,0.9,2.7,1.8,4,2.7c9.8,7.6,15,18.2,17.2,30.6C368.9,52.8,369.4,57.8,370.1,63z"/>
		</g>
	</g>
	<g>
		<g>
			<path class="st0" d="M30.5,174.9c1,0.9,2,1.8,3,2.6c6.8,6.4,14.7,10.8,23.2,13.9c2.3,0.9,4.6,1.5,6.9,2.4
				c0.5,0.2,1.2,0.7,1.4,1.2c5.7,9.4,12.1,18.3,19.5,26.4c3.3,3.7,6.8,7.3,10.8,10.2c1.8,1.3,3.8,2.4,6,2.4c0.6,0,1.2-0.2,2.1-0.3
				c-1.6-1.2-2.9-2.2-4.2-3.2c-5.1-4-9.9-8.3-14.4-13c-8.3-8.7-15.2-18.4-20.5-29c-0.7-1.4-0.6-2.2,0.3-3.2
				c5.4-6.5,10.9-12.8,15.2-20.2c5.1-8.9,7.6-18.9,7.9-29.7c0.1-1.8-0.4-3.7-1-5.4c-0.6-1.7-1.7-1.9-3.1-1.1
				c-6.8,4.2-11.3,10.4-14.6,17.8c-4.8,10.9-6.6,22.8-6.7,35.2c0,0.9,0,1.8-0.3,2.7c-0.2-0.4-0.4-0.9-0.6-1.3
				c-5.6-13.3-8.7-27-9.9-40.9c-0.5-5.8-0.5-11.5-0.8-17.3c0-1.1,0.3-1.4,1.3-1.7c8.8-2.7,16.7-6.9,23.3-13.1
				c6.6-6.1,11.5-13.5,13.8-22.6c0.1-0.4,0.2-0.8,0.3-1.2c0-0.1,0-0.3-0.1-0.6c-19.1,3.8-30.3,16.6-38.2,33.3
				c0.2-8.5,1.2-16.8,2.3-25.1c-0.2,0.8-0.4,1.7-0.5,2.5c-0.1,0-0.2,0-0.3,0c0-0.5-0.1-1.1-0.1-1.6c0.5-11.4-0.8-22.7-5.2-33.9
				c-1.8-4.7-3.7-9.3-6.7-13.4c-1.3-1.8-2.9-3.3-4.6-5.2c-0.2,1.3-0.4,2.3-0.6,3.3c-1.4,8.2-1.5,16.4,1.1,24.9
				c2,6.6,5.3,12.7,9,18.7c1.8,2.8,3.5,5.6,5.4,8.3c0.9,1.3,1.2,2.6,0.9,3.9c-0.5,2.6-0.9,5.3-1.4,7.9c-1.8,9.5-1.7,19.3-1.3,29.1
				c0.1,2.6,0.2,5.3,0.2,7.9c-0.1,0-0.2,0-0.3,0.1c-0.2-0.4-0.3-0.7-0.5-1.1c-2.3-6.2-4.6-12.4-7.8-18.3
				c-2.9-5.4-6.4-10.4-10.7-14.9c-4.4-4.4-9.5-7.4-15.2-9.2c-0.4-0.1-0.7-0.2-1.5-0.3c0.9,3.2,1.5,6.3,2.5,9.3
				c4.9,14,14.2,24.5,26.6,32.5c2,1.3,4.2,2.4,6.3,3.7c0.4,0.3,0.9,0.8,1.1,1.2c0.3,1.1,0.3,2.3,0.5,3.4
				c2.4,11.9,5.1,23.8,10.5,35.1c0.5,1,1,2,1.5,3c0.2,0.4,0.2,0.8,0.3,1.1c-0.1,0-0.2,0.1-0.3,0.1c-0.5-0.8-1.1-1.6-1.6-2.3
				c-6.9-10-14.5-19.3-25-25.6c-5.3-3.2-10.8-5.3-17-6.7c1.5,2.8,2.8,5.3,4.3,7.7c1.2,2,2.7,3.9,4.1,5.8c0.2,0.3,0.4,0.7,0.6,1
				C28.6,172.7,29.5,173.8,30.5,174.9z"/>
		</g>
		<g>
			<path class="st0" d="M94.3,44c-15.9,3.9-27.3,13-34.8,27c0.3-1.2,0.5-2.4,0.8-3.6c0.3-1.2,0.5-2.5,0.7-3.8
				c-2.9,7.5-4.9,15.3-6,23.4c0.4-1.6,0.8-3.1,1.1-4.6c0.2-1,0.7-1.5,1.6-1.9c8.9-3.4,17.2-7.8,24.1-14.3
				c5.6-5.2,9.9-11.3,11.9-19.1c0.2-0.8,0.3-1.5,0.5-2.3C94.2,44.7,94.2,44.5,94.3,44z"/>
		</g>
		<g>
			<path class="st0" d="M62.9,58.7c1.9-1.8,3.5-3.4,5.1-5c7.2-7.2,13.6-15,16.6-25.4c1.5-5.3,2.2-13.4,1.6-18
				c-1.4,0.9-2.7,1.8-4,2.7C72.4,20.5,67.2,31.2,65,43.6C64.1,48.4,63.6,53.4,62.9,58.7z"/>
		</g>
	</g>
</g>
</svg>
