<?xml version="1.0" encoding="utf-8"?>
<!-- Generator: Adobe Illustrator 24.0.0, SVG Export Plug-In . SVG Version: 6.00 Build 0)  -->
<svg version="1.1" id="Layer_1" xmlns="http://www.w3.org/2000/svg" xmlns:xlink="http://www.w3.org/1999/xlink" x="0px" y="0px"
	 width="32px" height="32px"	viewBox="0 0 433 249.81" style="enable-background:new 0 0 433 249.81;" xml:space="preserve">
<style type="text/css">
	.st0{fill:#FFFFFF;}
</style>
<g>
	<g>
		<path class="st0" d="M206.02,130.63c0,0,0,7-2,8s2,4,6,2s4-8,4-8s10-1,15-11c0,0,0-1-1-1s-8,11-13,8c0,0,0-3,3-10s6-30,32-81
			c0,0,2-3,2-4s-19,9-42,49c0,0-9-27-25-19s-12,39,2,55c0,0-13,21-34,21s-22-25-22-25s1-34,27-32c0,0,9,0,11,10s0,31-21,29
			c0,0-2,1,1,2s13,2,19-9s4-22,4-22s-3-23-25-16s-29,53-1,64c0,0,24,8,42-20C188.02,120.63,198.02,131.63,206.02,130.63z
			 M243.02,42.63c0,0,2-1,1,1c0,0-28,50-31,69c0,0-1,2-1-2s0-14-1-26C211.02,84.63,233.02,48.63,243.02,42.63z M210.02,91.63
			c0,4,2,25-3,38c0,0-7,0-17-11c0,0,16-23,18-30C208.02,88.63,210.02,87.63,210.02,91.63z M179.02,89.63c2-15,7-22,13-22s13,3,16,18
			c0,0-9,14-19,31C189.02,116.63,177.02,104.63,179.02,89.63z"/>
	</g>
	<g>
		<path class="st0" d="M274.02,128.63c-14,24-23,54-23,54s-7,23-32,28s-29-18-29-18s-7-25,12-38s27,3,27,3s6,13-3,27s-22,5-25,4
			s-1,2-1,2c8,6,17,4,17,4s15-5,16-20s-2-23-9-28s-19-1-19-1c-28,14-18,48-18,48s5,19,25,20s29-8,39-20s21-42,26-59s12-20,12-20
			S288.02,104.63,274.02,128.63z"/>
	</g>
	<g>
		<path class="st0" d="M304.02,100.63c-4,1-18,1-35,1s-21,4-21,4c-21,9-20,30-20,30s0,20,17,17s25-32,23-33s-3,5-3,5
			c-12,24-23,24-30,22s-8-25,5-34s32-6,48-4s21-3,23-6S308.02,99.63,304.02,100.63z"/>
	</g>
	<g>
		<g>
			<path class="st0" d="M402.51,179.23c-0.99,0.88-2,1.75-2.97,2.65c-6.84,6.38-14.71,10.76-23.17,13.95
				c-2.29,0.86-4.63,1.52-6.92,2.36c-0.54,0.2-1.15,0.66-1.45,1.16c-5.66,9.41-12.11,18.27-19.51,26.45
				c-3.34,3.68-6.79,7.29-10.85,10.19c-1.84,1.31-3.78,2.37-5.99,2.39c-0.6,0.01-1.19-0.16-2.13-0.31c1.59-1.23,2.87-2.21,4.15-3.21
				c5.12-3.97,9.91-8.33,14.43-13.02c8.35-8.68,15.17-18.35,20.52-29.02c0.7-1.39,0.56-2.2-0.29-3.23
				c-5.38-6.48-10.95-12.81-15.2-20.21c-5.14-8.95-7.58-18.95-7.87-29.72c-0.05-1.77,0.39-3.68,0.97-5.44
				c0.55-1.67,1.74-1.93,3.08-1.1c6.78,4.24,11.31,10.45,14.55,17.77c4.84,10.92,6.56,22.81,6.67,35.16c0.01,0.88,0,1.76,0.29,2.7
				c0.21-0.45,0.44-0.89,0.63-1.34c5.6-13.33,8.73-27.02,9.9-40.94c0.49-5.78,0.48-11.54,0.76-17.31c0.05-1.05-0.35-1.45-1.25-1.73
				c-8.76-2.74-16.67-6.92-23.3-13.09c-6.59-6.12-11.46-13.5-13.76-22.62c-0.1-0.4-0.18-0.81-0.26-1.22
				c-0.02-0.12,0.03-0.25,0.07-0.6c19.13,3.85,30.33,16.63,38.2,33.31c-0.19-8.51-1.16-16.84-2.3-25.14
				c0.18,0.83,0.37,1.66,0.55,2.48c0.11-0.01,0.22-0.01,0.32-0.02c0.03-0.53,0.1-1.07,0.08-1.59c-0.49-11.4,0.85-22.71,5.18-33.89
				c1.81-4.66,3.67-9.31,6.73-13.42c1.32-1.77,2.91-3.34,4.57-5.23c0.22,1.27,0.39,2.28,0.57,3.3c1.4,8.18,1.54,16.43-1.08,24.89
				c-2.05,6.61-5.29,12.72-9,18.65c-1.75,2.8-3.52,5.6-5.37,8.34c-0.87,1.29-1.17,2.57-0.94,3.94c0.45,2.63,0.94,5.26,1.42,7.88
				c1.75,9.51,1.7,19.3,1.31,29.14c-0.1,2.64-0.16,5.27-0.23,7.91c0.11,0.02,0.21,0.04,0.32,0.05c0.15-0.36,0.32-0.72,0.46-1.08
				c2.34-6.19,4.57-12.41,7.79-18.3c2.94-5.4,6.38-10.45,10.74-14.86c4.36-4.4,9.48-7.37,15.17-9.21c0.36-0.12,0.74-0.15,1.52-0.31
				c-0.87,3.23-1.49,6.31-2.53,9.27c-4.91,13.98-14.19,24.53-26.6,32.52c-2.05,1.32-4.22,2.43-6.3,3.69
				c-0.44,0.26-0.94,0.76-1.06,1.21c-0.28,1.12-0.3,2.27-0.52,3.4c-2.36,11.92-5.13,23.76-10.52,35.07c-0.48,1-1.01,1.98-1.49,2.98
				c-0.17,0.35-0.24,0.75-0.35,1.12c0.11,0.04,0.21,0.09,0.32,0.13c0.54-0.78,1.08-1.55,1.62-2.33
				c6.87-10.02,14.5-19.27,25.02-25.62c5.25-3.17,10.79-5.33,17-6.7c-1.51,2.75-2.78,5.26-4.25,7.66c-1.23,2.01-2.71,3.88-4.07,5.82
				c-0.22,0.32-0.38,0.68-0.57,1.03C404.41,177.07,403.46,178.15,402.51,179.23z"/>
		</g>
		<g>
			<path class="st0" d="M338.65,48.4c15.93,3.9,27.27,13.01,34.85,26.99c-0.27-1.2-0.55-2.4-0.81-3.6
				c-0.27-1.23-0.54-2.46-0.65-3.75c2.88,7.48,4.9,15.28,6.05,23.4c-0.37-1.55-0.79-3.08-1.09-4.64c-0.19-0.99-0.69-1.5-1.63-1.86
				c-8.94-3.36-17.21-7.79-24.14-14.27c-5.57-5.21-9.93-11.32-11.91-19.08c-0.19-0.76-0.3-1.55-0.46-2.33
				C338.82,49.05,338.76,48.85,338.65,48.4z"/>
		</g>
		<g>
			<path class="st0" d="M370.09,63.04c-1.88-1.83-3.54-3.4-5.15-5.01c-7.22-7.21-13.63-15.01-16.55-25.36
				c-1.48-5.25-2.24-13.41-1.55-18.04c1.39,0.95,2.73,1.77,3.97,2.72c9.8,7.55,14.95,18.18,17.24,30.59
				C368.94,52.82,369.4,57.81,370.09,63.04z"/>
		</g>
	</g>
	<g>
		<g>
			<path class="st0" d="M30.49,174.86c0.99,0.88,2,1.75,2.97,2.65c6.84,6.38,14.71,10.76,23.17,13.95c2.29,0.86,4.63,1.52,6.92,2.36
				c0.54,0.2,1.15,0.66,1.45,1.16c5.66,9.41,12.11,18.27,19.51,26.45c3.34,3.68,6.79,7.29,10.85,10.19
				c1.84,1.31,3.78,2.37,5.99,2.39c0.6,0.01,1.19-0.16,2.13-0.31c-1.59-1.23-2.87-2.21-4.15-3.21c-5.12-3.97-9.91-8.33-14.43-13.02
				c-8.35-8.68-15.17-18.35-20.52-29.02c-0.7-1.39-0.56-2.2,0.29-3.23c5.38-6.48,10.95-12.81,15.2-20.21
				c5.14-8.95,7.58-18.95,7.87-29.72c0.05-1.77-0.39-3.68-0.97-5.44c-0.55-1.67-1.74-1.93-3.08-1.1
				c-6.78,4.24-11.31,10.45-14.55,17.77c-4.84,10.92-6.56,22.81-6.67,35.16c-0.01,0.88,0,1.76-0.29,2.7
				c-0.21-0.45-0.44-0.89-0.63-1.34c-5.6-13.33-8.73-27.02-9.9-40.94c-0.49-5.78-0.48-11.54-0.76-17.31
				c-0.05-1.05,0.35-1.45,1.25-1.73c8.76-2.74,16.67-6.92,23.3-13.09c6.59-6.12,11.46-13.5,13.76-22.62c0.1-0.4,0.18-0.81,0.26-1.22
				c0.02-0.12-0.03-0.25-0.07-0.6c-19.13,3.85-30.33,16.63-38.2,33.31c0.19-8.51,1.16-16.84,2.3-25.14
				c-0.18,0.83-0.37,1.66-0.55,2.48c-0.11-0.01-0.22-0.01-0.32-0.02c-0.03-0.53-0.1-1.07-0.08-1.59c0.49-11.4-0.85-22.71-5.18-33.89
				c-1.81-4.66-3.67-9.31-6.73-13.42c-1.32-1.77-2.91-3.34-4.57-5.23c-0.22,1.27-0.39,2.28-0.57,3.3
				c-1.4,8.18-1.54,16.43,1.08,24.89c2.05,6.61,5.29,12.72,9,18.65c1.75,2.8,3.52,5.6,5.37,8.34c0.87,1.29,1.17,2.57,0.94,3.94
				c-0.45,2.63-0.94,5.26-1.42,7.88c-1.75,9.51-1.7,19.3-1.31,29.14c0.1,2.64,0.16,5.27,0.23,7.91c-0.11,0.02-0.21,0.04-0.32,0.05
				c-0.15-0.36-0.32-0.72-0.46-1.08c-2.34-6.19-4.57-12.41-7.79-18.3c-2.94-5.4-6.38-10.45-10.74-14.86
				c-4.36-4.4-9.48-7.37-15.17-9.21c-0.36-0.12-0.74-0.15-1.52-0.31c0.87,3.23,1.49,6.31,2.53,9.27
				c4.91,13.98,14.19,24.53,26.6,32.52c2.05,1.32,4.22,2.43,6.3,3.69c0.44,0.26,0.94,0.76,1.06,1.21c0.28,1.12,0.3,2.27,0.52,3.4
				c2.36,11.92,5.13,23.76,10.52,35.07c0.48,1,1.01,1.98,1.49,2.98c0.17,0.35,0.24,0.75,0.35,1.12c-0.11,0.04-0.21,0.09-0.32,0.13
				c-0.54-0.78-1.08-1.55-1.62-2.33c-6.87-10.02-14.5-19.27-25.02-25.62c-5.25-3.17-10.79-5.33-17-6.7
				c1.51,2.75,2.78,5.26,4.25,7.66c1.23,2.01,2.71,3.88,4.07,5.82c0.22,0.32,0.38,0.68,0.57,1.03
				C28.59,172.7,29.54,173.78,30.49,174.86z"/>
		</g>
		<g>
			<path class="st0" d="M94.35,44.03c-15.93,3.9-27.27,13.01-34.85,26.99c0.27-1.2,0.55-2.4,0.81-3.6c0.27-1.23,0.54-2.46,0.65-3.75
				c-2.88,7.48-4.9,15.28-6.05,23.4c0.37-1.55,0.79-3.08,1.09-4.64c0.19-0.99,0.69-1.5,1.63-1.86c8.94-3.36,17.21-7.79,24.14-14.27
				c5.57-5.21,9.93-11.32,11.91-19.08c0.19-0.76,0.3-1.55,0.46-2.33C94.18,44.68,94.24,44.48,94.35,44.03z"/>
		</g>
		<g>
			<path class="st0" d="M62.91,58.67c1.88-1.83,3.54-3.4,5.15-5.01c7.22-7.21,13.63-15.01,16.55-25.36
				c1.48-5.25,2.24-13.41,1.55-18.04c-1.39,0.95-2.73,1.77-3.97,2.72c-9.8,7.55-14.95,18.18-17.24,30.59
				C64.06,48.44,63.6,53.44,62.91,58.67z"/>
		</g>
	</g>
</g>
</svg>
